<?xml version="1.0" encoding="utf-8"?>
<!-- Generator: Adobe Illustrator 16.0.0, SVG Export Plug-In . SVG Version: 6.00 Build 0)  -->
<!DOCTYPE svg PUBLIC "-//W3C//DTD SVG 1.1//EN" "http://www.w3.org/Graphics/SVG/1.1/DTD/svg11.dtd">
<svg version="1.1" id="Layer_1" xmlns="http://www.w3.org/2000/svg" xmlns:xlink="http://www.w3.org/1999/xlink" x="0px" y="0px"
	 width="87.008px" height="87.008px" viewBox="201.306 35.777 87.008 87.008" enable-background="new 201.306 35.777 87.008 87.008"
	 xml:space="preserve">
<path fill="#5D5D5D" d="M244.81,35.777c-24.024,0-43.504,19.478-43.504,43.504s19.479,43.504,43.504,43.504
	c24.026,0,43.504-19.478,43.504-43.504S268.836,35.777,244.81,35.777z M268.31,93.969c0,1.615-1.322,2.938-2.938,2.938h-41.125
	c-1.615,0-2.938-1.322-2.938-2.938V73.406l20.563,10.763c1.469,0.712,2.157,0.987,2.938,0.987s1.469-0.275,2.938-0.987
	l20.563-10.763V93.969z M268.31,66.819l-23.5,12.353l-23.5-12.353v-2.226c0-1.615,1.322-2.938,2.938-2.938h41.125
	c1.615,0,2.938,1.322,2.938,2.938V66.819z"/>
</svg>
