<?xml version="1.0" encoding="utf-8"?>
<!-- Generator: Adobe Illustrator 16.0.0, SVG Export Plug-In . SVG Version: 6.00 Build 0)  -->
<!DOCTYPE svg PUBLIC "-//W3C//DTD SVG 1.1//EN" "http://www.w3.org/Graphics/SVG/1.1/DTD/svg11.dtd">
<svg version="1.1" id="Layer_1" xmlns="http://www.w3.org/2000/svg" xmlns:xlink="http://www.w3.org/1999/xlink" x="0px" y="0px"
	 width="87.008px" height="87.008px" viewBox="310.307 34.777 87.008 87.008" enable-background="new 310.307 34.777 87.008 87.008"
	 xml:space="preserve">
<path fill="#5D5D5D" d="M353.811,34.777c-24.024,0-43.504,19.478-43.504,43.504s19.479,43.504,43.504,43.504
	c24.026,0,43.504-19.478,43.504-43.504S377.837,34.777,353.811,34.777z M342.953,77.243c-0.376,1.221-0.744,2.378-1.104,3.471
	c-0.36,1.093-0.712,2.102-1.056,3.026c-0.345,0.926-0.66,1.724-0.948,2.394h-2.776c-0.398-1.212-0.789-2.417-1.172-3.613
	c-0.384-1.197-0.734-2.401-1.054-3.614c-0.319,1.213-0.658,2.417-1.017,3.614c-0.359,1.196-0.738,2.401-1.137,3.613h-2.776
	c-0.288-0.67-0.6-1.468-0.936-2.394c-0.336-0.925-0.685-1.934-1.044-3.026c-0.36-1.093-0.729-2.25-1.104-3.471
	c-0.376-1.22-0.74-2.452-1.092-3.697h3.757c0.129,0.574,0.269,1.201,0.422,1.879c0.152,0.678,0.313,1.376,0.481,2.094
	c0.168,0.718,0.345,1.44,0.529,2.166s0.373,1.424,0.566,2.094c0.207-0.702,0.41-1.42,0.609-2.153c0.2-0.734,0.392-1.456,0.575-2.166
	c0.183-0.71,0.358-1.396,0.526-2.059c0.167-0.661,0.314-1.28,0.442-1.854h2.585c0.127,0.574,0.271,1.193,0.431,1.854
	c0.159,0.663,0.326,1.349,0.502,2.059s0.359,1.432,0.551,2.166c0.191,0.733,0.391,1.451,0.599,2.153
	c0.192-0.67,0.385-1.368,0.577-2.094s0.373-1.448,0.542-2.166c0.168-0.718,0.328-1.416,0.481-2.094
	c0.152-0.678,0.293-1.305,0.421-1.879h3.71C343.693,74.791,343.329,76.023,342.953,77.243z M362.193,77.243
	c-0.376,1.221-0.744,2.378-1.104,3.471c-0.36,1.093-0.712,2.102-1.056,3.026c-0.345,0.926-0.66,1.724-0.948,2.394h-2.776
	c-0.398-1.212-0.789-2.417-1.172-3.613c-0.384-1.197-0.734-2.401-1.054-3.614c-0.319,1.213-0.658,2.417-1.017,3.614
	c-0.359,1.196-0.738,2.401-1.137,3.613h-2.776c-0.288-0.67-0.6-1.468-0.936-2.394c-0.336-0.925-0.685-1.934-1.044-3.026
	c-0.36-1.093-0.729-2.25-1.104-3.471c-0.376-1.22-0.74-2.452-1.092-3.697h3.757c0.129,0.574,0.269,1.201,0.422,1.879
	c0.152,0.678,0.313,1.376,0.481,2.094c0.168,0.718,0.345,1.44,0.529,2.166s0.373,1.424,0.566,2.094
	c0.207-0.702,0.41-1.42,0.609-2.153c0.2-0.734,0.392-1.456,0.575-2.166c0.183-0.71,0.358-1.396,0.526-2.059
	c0.167-0.661,0.314-1.28,0.442-1.854h2.585c0.127,0.574,0.271,1.193,0.431,1.854c0.159,0.663,0.326,1.349,0.502,2.059
	s0.359,1.432,0.551,2.166c0.191,0.733,0.391,1.451,0.599,2.153c0.192-0.67,0.385-1.368,0.577-2.094s0.373-1.448,0.542-2.166
	c0.168-0.718,0.328-1.416,0.481-2.094c0.152-0.678,0.293-1.305,0.421-1.879h3.71C362.934,74.791,362.569,76.023,362.193,77.243z
	 M381.434,77.243c-0.376,1.221-0.744,2.378-1.104,3.471c-0.36,1.093-0.712,2.102-1.056,3.026c-0.345,0.926-0.66,1.724-0.948,2.394
	h-2.776c-0.398-1.212-0.789-2.417-1.172-3.613c-0.384-1.197-0.734-2.401-1.054-3.614c-0.319,1.213-0.658,2.417-1.017,3.614
	c-0.359,1.196-0.738,2.401-1.137,3.613h-2.776c-0.288-0.67-0.6-1.468-0.936-2.394c-0.336-0.925-0.685-1.934-1.044-3.026
	c-0.36-1.093-0.729-2.25-1.104-3.471c-0.376-1.22-0.74-2.452-1.092-3.697h3.757c0.129,0.574,0.269,1.201,0.422,1.879
	c0.152,0.678,0.313,1.376,0.481,2.094c0.168,0.718,0.345,1.44,0.529,2.166s0.373,1.424,0.566,2.094
	c0.207-0.702,0.41-1.42,0.609-2.153c0.2-0.734,0.392-1.456,0.575-2.166c0.183-0.71,0.358-1.396,0.526-2.059
	c0.167-0.661,0.314-1.28,0.442-1.854h2.585c0.127,0.574,0.271,1.193,0.431,1.854c0.159,0.663,0.326,1.349,0.502,2.059
	s0.359,1.432,0.551,2.166c0.191,0.733,0.391,1.451,0.599,2.153c0.192-0.67,0.385-1.368,0.577-2.094s0.373-1.448,0.542-2.166
	c0.168-0.718,0.328-1.416,0.481-2.094c0.152-0.678,0.293-1.305,0.421-1.879h3.71C382.174,74.791,381.81,76.023,381.434,77.243z"/>
</svg>
