<?xml version="1.0" encoding="utf-8"?>
<!-- Generator: Adobe Illustrator 16.0.0, SVG Export Plug-In . SVG Version: 6.00 Build 0)  -->
<!DOCTYPE svg PUBLIC "-//W3C//DTD SVG 1.1//EN" "http://www.w3.org/Graphics/SVG/1.1/DTD/svg11.dtd">
<svg version="1.1" id="Layer_1" xmlns="http://www.w3.org/2000/svg" xmlns:xlink="http://www.w3.org/1999/xlink" x="0px" y="0px"
	 width="60px" height="60px" viewBox="-294 0 60 60" enable-background="new -294 0 60 60" xml:space="preserve">
<path fill="#57BB63" d="M-264,0c-16.568,0-30,13.432-30,30s13.432,30,30,30s30-13.432,30-30S-247.432,0-264,0z M-263.929,46.221
	c-2.86,0-5.548-0.73-7.886-2.014l-9.032,2.87l2.944-8.686c-1.485-2.439-2.341-5.3-2.341-8.358c0-8.94,7.304-16.188,16.314-16.188
	c9.009,0,16.313,7.247,16.313,16.188C-247.615,38.974-254.919,46.221-263.929,46.221z"/>
<path fill="#57BB63" d="M-263.929,16.424c-7.563,0-13.715,6.105-13.715,13.609c0,2.978,0.971,5.736,2.612,7.98l-1.713,5.053
	l5.271-1.675c2.166,1.423,4.76,2.251,7.546,2.251c7.562,0,13.716-6.104,13.716-13.608C-250.213,22.53-256.367,16.424-263.929,16.424
	z M-255.924,35.648c-0.335,0.927-1.968,1.82-2.699,1.887c-0.734,0.066-0.734,0.596-4.801-0.992c-4.064-1.59-6.63-5.727-6.83-5.99
	c-0.201-0.265-1.633-2.151-1.633-4.104s1.033-2.912,1.399-3.31c0.367-0.397,0.8-0.496,1.066-0.496s0.533,0.033,0.767,0.033
	c0.234,0,0.566-0.132,0.899,0.662c0.333,0.794,1.133,2.747,1.233,2.945c0.1,0.199,0.167,0.431,0.033,0.695
	c-0.133,0.265-0.199,0.43-0.399,0.662c-0.2,0.231-0.42,0.517-0.6,0.695c-0.2,0.197-0.409,0.412-0.175,0.809
	c0.233,0.397,1.036,1.696,2.224,2.748c1.528,1.352,2.816,1.771,3.216,1.969c0.399,0.199,0.633,0.166,0.866-0.1
	c0.233-0.265,1-1.158,1.267-1.555c0.266-0.398,0.533-0.331,0.9-0.199c0.365,0.133,2.332,1.093,2.732,1.291
	c0.398,0.198,0.666,0.298,0.766,0.463C-255.592,33.928-255.592,34.722-255.924,35.648z"/>
</svg>
