<?xml version="1.0" encoding="utf-8"?>
<!-- Generator: Adobe Illustrator 16.0.0, SVG Export Plug-In . SVG Version: 6.00 Build 0)  -->
<!DOCTYPE svg PUBLIC "-//W3C//DTD SVG 1.1//EN" "http://www.w3.org/Graphics/SVG/1.1/DTD/svg11.dtd">
<svg version="1.1" id="Layer_1" xmlns="http://www.w3.org/2000/svg" xmlns:xlink="http://www.w3.org/1999/xlink" x="0px" y="0px"
	 width="348.5px" height="90px" viewBox="0 0 348.5 90" enable-background="new 0 0 348.5 90" xml:space="preserve">
<g>
	<rect x="-35.666" y="-36.25" fill="none" width="405" height="162.5"/>
	<g>
		<path fill="#0055A0" d="M305.283,31.301h6.205l0.1,2.584c0.568-0.715,2.912-3.363,7.125-3.363c6.814,0,10.535,4.213,10.535,11.555
			v17.115h-6.439V42.287c0-3.779-2.309-5.947-5.549-5.947c-3.217,0-5.537,2.168-5.537,5.947v16.904h-6.439V31.301z M250.938,59.191
			h-6.445V18.65h6.445V59.191z M264.707,59.191h-6.445V31.301h6.445V59.191z M261.479,17.982c-2.232,0-4.031,1.811-4.031,4.043
			c0,2.221,1.799,4.037,4.031,4.037c2.227,0,4.043-1.816,4.043-4.037C265.521,19.793,263.705,17.982,261.479,17.982 M230.805,31.301
			h6.375v27.891h-6.375l-0.1-2.924c-1.172,1.195-4.289,3.709-8.643,3.709c-7.6,0-13.236-6.117-13.236-14.73
			c0-9.111,6.1-14.725,13.236-14.725c4.998,0,7.811,2.713,8.643,3.715L230.805,31.301z M215.412,45.246
			c0,5.35,3.281,8.918,7.84,8.918c4.137,0,7.852-3.012,7.852-8.918c0-5.736-3.563-8.918-7.852-8.918
			C218.506,36.328,215.412,40.113,215.412,45.246 M291.883,45.246c0-5.818-3.668-8.918-7.834-8.918
			c-4.986,0-7.857,4.055-7.857,8.918c0,5.133,3.094,8.918,7.852,8.918C288.42,54.164,291.883,50.906,291.883,45.246 M297.953,56.432
			c0,11.965-7.002,15.938-15.246,15.938c-5.496,0-8.813-1.658-9.979-2.209l1.6-5.543c0.727,0.381,3.738,2.168,8.326,2.168
			c4.799,0,8.865-3.076,8.865-8.613v-1.928c-0.521,0.545-3.246,3.732-8.713,3.732c-7.512,0-13.189-6.041-13.189-14.73
			c0-8.326,5.344-14.725,13.213-14.725c5.367,0,8.092,3.047,8.654,3.715l0.082-2.936h6.387V56.432z"/>
		<path fill="#009EE0" d="M150.385,31.301l7.219,16.775l7.184-16.775h7.148l-14.396,29.807l-14.273-29.807H150.385z M186.467,52.781
			c1.57,0.984,4.646,2.092,7.207,2.092c3.129,0,4.629-1.342,4.629-3.193c0-1.916-1.154-2.959-4.641-4.23
			c-5.514-1.863-7.699-4.746-7.699-8.109c0-4.986,3.926-8.818,10.494-8.818c3.135,0,5.865,0.744,7.541,1.676l-1.436,4.992
			c-1.184-0.697-3.504-1.623-5.988-1.623c-2.561,0-4.072,1.271-4.072,3.018c0,1.799,1.342,2.73,4.945,4.061
			c5.162,1.799,7.406,4.371,7.465,8.549c0,5.156-3.814,8.783-11.303,8.783c-3.422,0-6.504-0.809-8.602-1.975L186.467,52.781z
			 M110.658,59.191h-6.445V31.301h6.445V59.191z M107.441,17.982c-2.238,0-4.043,1.811-4.043,4.043c0,2.221,1.805,4.037,4.043,4.037
			c2.227,0,4.031-1.816,4.031-4.037C111.473,19.793,109.668,17.982,107.441,17.982 M180.689,59.191h-6.439V31.301h6.439V59.191z
			 M177.473,17.982c-2.238,0-4.049,1.811-4.049,4.043c0,2.221,1.811,4.037,4.049,4.037c2.227,0,4.031-1.816,4.031-4.037
			C181.504,19.793,179.699,17.982,177.473,17.982 M117.965,31.301h6.217l0.105,2.584c0.563-0.715,2.783-3.363,7.201-3.363
			c6.234,0,10.453,4.213,10.453,11.561v17.109h-6.445V42.381c0-3.58-2.32-6.041-5.543-6.041c-3.211,0-5.531,2.414-5.531,6.041
			v16.811h-6.457V31.301z"/>
		<path fill="#009EE0" d="M54.988,29.701c2.818,1.605,5.145,3.938,6.744,6.75c-5.127,3.123-9.791,3.053-9.791,3.053
			S51.859,34.846,54.988,29.701 M61.732,54.041c-5.127-3.117-9.791-3.047-9.791-3.047s-0.082,4.658,3.047,9.797
			C57.807,59.191,60.133,56.854,61.732,54.041 M54.32,45.246c0,0,3.246,3.352,9.076,4.77c0.422-1.518,0.65-3.117,0.65-4.77
			s-0.229-3.246-0.65-4.77C57.566,41.895,54.32,45.246,54.32,45.246 M38.072,45.246c0,0-3.246-3.352-9.082-4.77
			c-0.422,1.523-0.639,3.117-0.639,4.77s0.217,3.252,0.639,4.77C34.826,48.598,38.072,45.246,38.072,45.246 M40.457,50.994
			c0,0-4.664-0.07-9.791,3.047c1.588,2.813,3.926,5.15,6.732,6.75C40.521,55.652,40.457,50.994,40.457,50.994 M40.457,39.504
			c0,0,0.064-4.658-3.059-9.803c-2.807,1.605-5.145,3.938-6.732,6.75C35.793,39.574,40.457,39.504,40.457,39.504 M46.205,53.367
			c0,0-3.357,3.246-4.781,9.082c1.529,0.428,3.117,0.656,4.781,0.656c1.646,0,3.24-0.229,4.764-0.65
			C49.533,56.613,46.205,53.367,46.205,53.367 M46.205,37.125c0,0,3.328-3.246,4.764-9.082c-1.523-0.428-3.117-0.65-4.764-0.65
			c-1.664,0-3.252,0.223-4.781,0.65C42.848,33.879,46.205,37.125,46.205,37.125"/>
		<path fill="#0055A0" d="M62.137,22.377c5.918-4.037,12.65-5.713,12.65-5.713s-1.676,6.721-5.719,12.639
			C67.188,26.607,64.838,24.264,62.137,22.377 M51.098,17.801c-1.336-7.043-4.893-12.973-4.893-12.973s-3.58,5.93-4.916,12.973
			c1.6-0.275,3.234-0.428,4.916-0.428C47.869,17.373,49.504,17.52,51.098,17.801 M62.137,68.115
			c5.918,4.049,12.65,5.719,12.65,5.719s-1.676-6.721-5.719-12.645C67.188,63.885,64.838,66.234,62.137,68.115 M18.754,40.354
			C11.699,41.678,5.77,45.246,5.77,45.246s5.93,3.568,12.984,4.893c-0.287-1.576-0.439-3.217-0.439-4.893
			C18.314,43.576,18.467,41.941,18.754,40.354 M73.639,50.139c7.049-1.324,12.979-4.893,12.979-4.893s-5.93-3.568-12.979-4.893
			c0.287,1.588,0.428,3.223,0.428,4.893C74.066,46.922,73.926,48.563,73.639,50.139 M30.256,22.377
			c-5.924-4.037-12.639-5.713-12.639-5.713s1.664,6.721,5.707,12.645C25.199,26.607,27.561,24.264,30.256,22.377 M41.289,72.697
			c1.336,7.037,4.916,12.973,4.916,12.973s3.557-5.936,4.893-12.973c-1.594,0.281-3.229,0.428-4.893,0.428
			C44.523,73.125,42.889,72.979,41.289,72.697 M23.324,61.189c-4.043,5.924-5.707,12.645-5.707,12.645s6.715-1.67,12.639-5.719
			C27.561,66.234,25.199,63.885,23.324,61.189"/>
		<path fill="#007BC0" d="M51.584,67.723c0,1.676-0.188,3.357-0.486,4.975c-1.594,0.281-3.229,0.428-4.893,0.428
			c-1.682,0-3.328-0.146-4.916-0.428c-0.305-1.617-0.492-3.299-0.492-4.975c0-1.934,0.24-3.691,0.627-5.268
			c1.529,0.422,3.117,0.65,4.781,0.65c1.646,0,3.24-0.229,4.764-0.65C51.35,64.031,51.584,65.789,51.584,67.723 M63.396,40.477
			c0.422,1.523,0.65,3.117,0.65,4.77s-0.229,3.252-0.65,4.77c1.576,0.375,3.346,0.627,5.285,0.627c1.67,0,3.346-0.188,4.957-0.504
			c0.287-1.576,0.428-3.217,0.428-4.893c0-1.67-0.141-3.305-0.428-4.893c-1.611-0.316-3.287-0.498-4.957-0.498
			C66.742,39.855,64.973,40.096,63.396,40.477 M61.732,54.041c-1.6,2.813-3.926,5.15-6.744,6.75c0.844,1.383,1.91,2.795,3.287,4.166
			c1.184,1.184,2.502,2.244,3.861,3.158c2.701-1.881,5.051-4.23,6.932-6.926c-0.932-1.365-1.986-2.678-3.176-3.867
			C64.527,55.957,63.121,54.885,61.732,54.041 M28.99,50.016c-0.422-1.518-0.639-3.117-0.639-4.77s0.217-3.246,0.639-4.77
			c-1.57-0.381-3.34-0.621-5.273-0.621c-1.67,0-3.346,0.182-4.963,0.498c-0.287,1.588-0.439,3.223-0.439,4.893
			c0,1.676,0.152,3.316,0.439,4.893c1.617,0.316,3.293,0.504,4.963,0.504C25.65,50.643,27.42,50.391,28.99,50.016 M54.988,29.701
			c2.818,1.6,5.145,3.938,6.744,6.75c1.389-0.838,2.795-1.916,4.16-3.281c1.189-1.178,2.244-2.502,3.176-3.861
			c-1.881-2.701-4.23-5.045-6.932-6.932c-1.365,0.926-2.678,1.986-3.861,3.164C56.898,26.906,55.832,28.33,54.988,29.701
			 M41.424,28.043c1.529-0.428,3.117-0.645,4.781-0.645c1.646,0,3.24,0.217,4.764,0.645c0.381-1.57,0.615-3.34,0.615-5.273
			c0-1.676-0.188-3.352-0.486-4.969c-1.594-0.281-3.229-0.428-4.893-0.428c-1.682,0-3.328,0.146-4.916,0.428
			c-0.305,1.617-0.492,3.293-0.492,4.969C40.797,24.703,41.037,26.473,41.424,28.043 M30.666,36.451
			c1.588-2.813,3.926-5.145,6.732-6.75c-0.832-1.371-1.91-2.795-3.281-4.16c-1.189-1.178-2.496-2.238-3.861-3.164
			c-2.695,1.887-5.045,4.23-6.932,6.932c0.926,1.359,1.98,2.684,3.164,3.861C27.859,34.535,29.277,35.613,30.666,36.451
			 M37.398,60.791c-2.807-1.6-5.145-3.938-6.732-6.75c-1.389,0.844-2.807,1.916-4.178,3.281c-1.184,1.189-2.238,2.502-3.164,3.867
			c1.887,2.695,4.236,5.045,6.932,6.926c1.365-0.926,2.672-1.975,3.861-3.158C35.488,63.586,36.566,62.162,37.398,60.791"/>
		<path fill="#0055A0" d="M339.654,29.725c2.303,0,4.244,1.834,4.244,4.254c0,2.416-1.941,4.242-4.244,4.242
			c-2.318,0-4.246-1.826-4.246-4.242C335.408,31.559,337.336,29.725,339.654,29.725 M339.654,37.602
			c1.941,0,3.488-1.566,3.488-3.623s-1.547-3.637-3.488-3.637c-1.951,0-3.498,1.58-3.498,3.637S337.703,37.602,339.654,37.602
			 M338.031,31.488h1.869c1.178,0,1.74,0.463,1.74,1.418c0,0.898-0.572,1.273-1.311,1.355l1.422,2.186h-0.811l-1.34-2.133h-0.816
			v2.133h-0.754V31.488z M338.785,33.703h0.773c0.68,0,1.326-0.039,1.326-0.842c0-0.676-0.59-0.758-1.104-0.758h-0.996V33.703z"/>
	</g>
</g>
</svg>
