<?xml version="1.0" encoding="utf-8"?>
<!-- Generator: Adobe Illustrator 16.0.0, SVG Export Plug-In . SVG Version: 6.00 Build 0)  -->
<!DOCTYPE svg PUBLIC "-//W3C//DTD SVG 1.1//EN" "http://www.w3.org/Graphics/SVG/1.1/DTD/svg11.dtd">
<svg version="1.1" id="Layer_1" xmlns="http://www.w3.org/2000/svg" xmlns:xlink="http://www.w3.org/1999/xlink" x="0px" y="0px"
	 width="429.63px" height="178.407px" viewBox="0 0 429.63 178.407" enable-background="new 0 0 429.63 178.407"
	 xml:space="preserve">
<g>
	<g>
		<polygon fill="#FFFFFF" points="429.63,140.975 0,140.975 0,22.526 182.997,22.526 182.997,25.706 3.18,25.706 3.18,137.795 
			426.45,137.795 426.45,25.706 246.395,25.706 246.395,22.526 429.63,22.526 		"/>
	</g>
	<polygon fill="#FFFFFF" points="236.038,38.254 224.021,20.99 235.134,7.758 238.621,7.292 238.621,5.174 227.613,5.174 
		227.613,7.292 230.585,7.604 230.896,8.353 219.136,22.696 217.265,22.696 217.265,3.179 218.169,2.429 219.695,2.271 
		221.308,2.119 221.308,0 221.167,0 208.463,0 208.323,0 208.323,2.119 209.935,2.271 211.46,2.429 212.365,3.179 212.365,22.696 
		210.494,22.696 198.734,8.353 199.044,7.604 202.018,7.292 202.018,5.174 191.006,5.174 191.006,7.292 194.496,7.758 
		205.607,20.99 193.592,38.254 189.74,38.513 189.74,40.684 198.476,40.684 198.476,39.107 208.582,24.867 212.365,24.867 
		212.365,37.504 211.46,38.254 209.935,38.385 208.323,38.513 208.323,40.684 208.463,40.684 221.167,40.684 221.308,40.684 
		221.308,38.513 219.695,38.385 218.169,38.254 217.265,37.504 217.265,24.867 221.048,24.867 231.153,39.107 231.153,40.684 
		239.889,40.684 239.889,38.513 	"/>
	<g>
		<path fill="#FFFFFF" d="M41.183,98.117v-2.002l2.763-0.238l0.835-0.69V68.313l-0.835-0.691l-2.763-0.287v-1.953h11.841v1.953
			l-3.026,0.287l-0.834,0.691v13.223h1.858l10.84-13.223l-0.285-0.691l-2.74-0.287v-1.953h10.149v1.953l-3.217,0.429L55.524,79.963
			l11.078,15.914l3.55,0.238v2.002H62.1v-1.453l-9.314-13.127h-3.622v11.649l0.834,0.69l3.026,0.238v2.002H41.183z"/>
		<path fill="#FFFFFF" d="M88.358,65.383h11.96v1.953l-3.025,0.287l-0.834,0.691v17.653c0,3.415,0.687,5.889,2.061,7.421
			c1.374,1.533,3.586,2.3,6.636,2.3c3.018,0,5.218-0.775,6.6-2.323c1.382-1.549,2.071-4.015,2.071-7.397v-17.32l-0.928-0.881
			l-2.931-0.429v-1.953h10.315v1.953l-2.931,0.429l-0.881,0.881v17.749c0,2.335-0.167,4.121-0.501,5.36
			c-0.333,1.239-0.881,2.318-1.644,3.24c-0.969,1.159-2.339,2.068-4.109,2.729c-1.771,0.658-3.769,0.988-5.992,0.988
			c-2.239,0-4.241-0.33-6.004-0.988c-1.763-0.66-3.13-1.569-4.098-2.729c-0.778-0.938-1.33-2.017-1.655-3.24
			c-0.325-1.223-0.488-3.01-0.488-5.36V68.313l-0.834-0.691l-2.788-0.287V65.383z"/>
		<path fill="#FFFFFF" d="M142.135,65.383h12.436c3.765,0,6.568,0.651,8.41,1.953c1.842,1.303,2.764,3.288,2.764,5.956
			c0,1.843-0.592,3.388-1.774,4.634c-1.184,1.248-2.951,2.188-5.302,2.823c2.859,0.032,5.087,0.735,6.684,2.109
			c1.596,1.373,2.394,3.275,2.394,5.705c0,3.097-1.092,5.464-3.275,7.1s-5.341,2.454-9.471,2.454h-12.864v-2.002l2.763-0.238
			l0.835-0.69V68.313l-0.835-0.691l-2.763-0.287V65.383z M150.14,80.201c0.206,0.016,0.44,0.028,0.702,0.036
			c0.263,0.009,0.64,0.013,1.132,0.013c3.081,0,5.341-0.544,6.778-1.633c1.437-1.087,2.156-2.799,2.156-5.134
			c0-1.985-0.668-3.474-2.002-4.467c-1.334-0.993-3.335-1.489-6.003-1.489c-0.238,0-0.664,0.021-1.274,0.06
			c-0.612,0.04-1.117,0.067-1.514,0.083L150.14,80.201z M150.14,95.688c0.588,0.047,1.151,0.082,1.691,0.107
			c0.54,0.023,1.063,0.035,1.572,0.035c3.336,0,5.762-0.553,7.278-1.656s2.274-2.861,2.274-5.276c0-2.208-0.662-3.852-1.988-4.932
			c-1.327-1.08-3.348-1.621-6.063-1.621c-0.636,0-1.355,0.028-2.156,0.084c-0.802,0.056-1.68,0.131-2.633,0.227L150.14,95.688z"/>
		<path fill="#FFFFFF" d="M191.217,98.117v-2.002l3.121-0.238l0.834-0.69V68.313l-0.834-0.691l-3.121-0.287v-1.953h12.389v1.953
			l-3.121,0.287l-0.834,0.691v26.873l0.834,0.69l3.121,0.238v2.002H191.217z"/>
		<path fill="#FFFFFF" d="M228.552,65.383h27.563v7.505h-2.693l-0.667-4.527l-0.689-0.738h-7.458v27.564l0.811,0.69l3.287,0.238
			v2.002h-12.744v-2.002l3.264-0.238l0.833-0.69V67.623h-7.456l-0.691,0.738l-0.69,4.527h-2.668V65.383z"/>
		<path fill="#FFFFFF" d="M280.324,97.141v-8.577h2.883l0.572,5.599l0.643,0.834c0.715,0.365,1.532,0.643,2.454,0.834
			c0.921,0.189,1.921,0.285,3.002,0.285c2.271,0,4.069-0.527,5.396-1.584c1.326-1.056,1.989-2.48,1.989-4.275
			c0-2.494-2.335-4.733-7.006-6.719c-0.507-0.223-0.896-0.39-1.168-0.501c-3.333-1.444-5.542-2.791-6.621-4.038
			c-1.08-1.246-1.62-2.862-1.62-4.848c0-2.795,1.028-5.055,3.085-6.778c2.057-1.723,4.784-2.584,8.184-2.584
			c1.366,0,2.736,0.115,4.109,0.345c1.375,0.23,2.776,0.575,4.205,1.037v7.552h-2.55l-0.737-4.646l-0.715-0.811
			c-0.619-0.349-1.295-0.607-2.025-0.774c-0.731-0.167-1.524-0.25-2.382-0.25c-2.034,0-3.646,0.528-4.837,1.584
			c-1.19,1.057-1.787,2.489-1.787,4.301c0,1.318,0.417,2.41,1.252,3.275c0.833,0.867,2.695,1.911,5.586,3.133
			c0.27,0.111,0.675,0.271,1.215,0.477c2.844,1.112,4.893,2.287,6.147,3.526c0.714,0.698,1.251,1.501,1.606,2.405
			c0.359,0.906,0.537,1.891,0.537,2.955c0,2.938-1.152,5.309-3.454,7.11c-2.304,1.803-5.36,2.705-9.173,2.705
			c-1.7,0-3.3-0.136-4.801-0.404C282.814,98.037,281.483,97.648,280.324,97.141z"/>
		<path fill="#FFFFFF" d="M326.643,98.117v-2.002l2.764-0.238l0.834-0.69V68.313l-0.834-0.691l-2.764-0.287v-1.953h11.841v1.953
			l-3.026,0.287l-0.832,0.691v13.223h1.857l10.84-13.223l-0.286-0.691l-2.739-0.287v-1.953h10.148v1.953l-3.217,0.429
			l-10.244,12.198l11.079,15.914l3.55,0.238v2.002h-8.053v-1.453l-9.315-13.127h-3.62v11.649l0.832,0.69l3.026,0.238v2.002H326.643z
			"/>
		<path fill="#FFFFFF" d="M376.059,98.117v-2.002l3.121-0.238l0.834-0.69V68.313l-0.834-0.691l-3.121-0.287v-1.953h12.389v1.953
			l-3.121,0.287l-0.834,0.691v26.873l0.834,0.69l3.121,0.238v2.002H376.059z"/>
	</g>
</g>
<g>
	<path fill="#FFFFFF" d="M66.775,173.674c-1.105,0-2.064-0.232-2.879-0.698s-1.443-1.116-1.888-1.952
		c-0.443-0.836-0.665-1.814-0.665-2.934c0-1.105,0.222-2.076,0.665-2.912c0.444-0.836,1.08-1.487,1.909-1.953
		c0.829-0.465,1.796-0.697,2.901-0.697c1.104,0,2.068,0.229,2.891,0.687c0.821,0.458,1.454,1.109,1.897,1.952
		c0.443,0.844,0.665,1.818,0.665,2.924s-0.226,2.079-0.676,2.922c-0.451,0.844-1.091,1.498-1.92,1.964
		S67.881,173.674,66.775,173.674z M69.742,168.111c0-1.033-0.266-1.873-0.796-2.52c-0.531-0.646-1.24-0.971-2.127-0.971
		c-0.873,0-1.582,0.327-2.127,0.981s-0.825,1.483-0.84,2.487c0,1.032,0.266,1.868,0.796,2.508c0.531,0.641,1.24,0.96,2.127,0.96
		s1.604-0.327,2.148-0.981C69.47,169.922,69.742,169.1,69.742,168.111z"/>
	<path fill="#FFFFFF" d="M81.544,165.318c-0.698,0.364-1.338,0.808-1.92,1.331v6.741h-2.443v-10.58h1.31l0.807,1.745
		c0.523-0.437,1.123-0.837,1.8-1.2c0.676-0.363,1.269-0.545,1.777-0.545l0.502,1.963C82.853,164.773,82.242,164.955,81.544,165.318z
		"/>
	<path fill="#FFFFFF" d="M90.836,162.897h1.92l0.741,1.876h-2.661v5.039c0,0.567,0.127,1.021,0.382,1.363
		c0.254,0.342,0.636,0.513,1.146,0.513c0.334,0,0.697-0.087,1.091-0.262l0.676,1.811c-0.218,0.146-0.521,0.272-0.905,0.382
		c-0.386,0.109-0.738,0.164-1.058,0.164c-1.179,0-2.102-0.306-2.771-0.916c-0.669-0.611-1.004-1.491-1.004-2.641v-5.453h-1.461
		v-1.876h1.461v-2.596l2.443-0.479V162.897z"/>
	<path fill="#FFFFFF" d="M103.597,173.674c-1.105,0-2.064-0.232-2.879-0.698s-1.443-1.116-1.888-1.952
		c-0.443-0.836-0.665-1.814-0.665-2.934c0-1.105,0.222-2.076,0.665-2.912c0.444-0.836,1.08-1.487,1.909-1.953
		c0.829-0.465,1.796-0.697,2.901-0.697c1.104,0,2.068,0.229,2.891,0.687c0.821,0.458,1.454,1.109,1.897,1.952
		c0.443,0.844,0.665,1.818,0.665,2.924s-0.226,2.079-0.676,2.922c-0.451,0.844-1.091,1.498-1.92,1.964
		S104.702,173.674,103.597,173.674z M106.563,168.111c0-1.033-0.266-1.873-0.796-2.52c-0.531-0.646-1.24-0.971-2.127-0.971
		c-0.873,0-1.582,0.327-2.127,0.981s-0.825,1.483-0.84,2.487c0,1.032,0.266,1.868,0.796,2.508c0.531,0.641,1.24,0.96,2.127,0.96
		s1.604-0.327,2.148-0.981C106.291,169.922,106.563,169.1,106.563,168.111z"/>
	<path fill="#FFFFFF" d="M123.426,173.391h-1.33l-0.524-0.873c-0.45,0.363-0.935,0.647-1.45,0.851
		c-0.517,0.204-1.015,0.306-1.494,0.306c-1.076,0-2.011-0.232-2.803-0.698c-0.793-0.466-1.404-1.12-1.833-1.964
		c-0.429-0.843-0.644-1.824-0.644-2.944c0-1.104,0.215-2.075,0.644-2.912c0.429-0.836,1.047-1.483,1.854-1.941
		c0.807-0.458,1.748-0.687,2.825-0.687c0.334,0,0.705,0.062,1.112,0.186c0.407,0.123,0.8,0.301,1.178,0.533v-5.017l2.465-0.218
		V173.391z M118.671,171.558c0.436,0,0.836-0.069,1.199-0.207s0.728-0.36,1.091-0.665v-5.191c-0.349-0.307-0.705-0.527-1.069-0.666
		c-0.363-0.139-0.771-0.207-1.221-0.207c-0.873,0-1.561,0.32-2.062,0.959c-0.502,0.641-0.753,1.463-0.753,2.466
		c0,1.062,0.251,1.912,0.753,2.552C117.11,171.238,117.798,171.558,118.671,171.558z"/>
	<path fill="#FFFFFF" d="M134.006,173.674c-1.105,0-2.065-0.232-2.88-0.698s-1.443-1.116-1.887-1.952s-0.665-1.814-0.665-2.934
		c0-1.105,0.222-2.076,0.665-2.912s1.08-1.487,1.909-1.953c0.828-0.465,1.796-0.697,2.9-0.697c1.105,0,2.069,0.229,2.891,0.687
		s1.454,1.109,1.898,1.952c0.443,0.844,0.665,1.818,0.665,2.924s-0.226,2.079-0.677,2.922c-0.45,0.844-1.091,1.498-1.919,1.964
		C136.078,173.441,135.11,173.674,134.006,173.674z M136.973,168.111c0-1.033-0.266-1.873-0.797-2.52
		c-0.53-0.646-1.239-0.971-2.127-0.971c-0.872,0-1.581,0.327-2.126,0.981c-0.546,0.654-0.826,1.483-0.84,2.487
		c0,1.032,0.265,1.868,0.796,2.508c0.53,0.641,1.239,0.96,2.127,0.96c0.887,0,1.604-0.327,2.148-0.981
		S136.973,169.1,136.973,168.111z"/>
	<path fill="#FFFFFF" d="M149.952,164.533c-0.888,0-1.92,0.488-3.098,1.462v7.396h-2.443v-10.58h1.636l0.437,1.266
		c0.61-0.494,1.279-0.888,2.007-1.179c0.727-0.29,1.41-0.437,2.051-0.437c1.235,0,2.13,0.367,2.683,1.102s0.829,1.742,0.829,3.021
		v6.807h-2.465v-6.654C151.588,165.268,151.042,164.533,149.952,164.533z"/>
	<path fill="#FFFFFF" d="M162.451,162.897h1.92l0.741,1.876h-2.661v5.039c0,0.567,0.127,1.021,0.382,1.363
		c0.254,0.342,0.636,0.513,1.146,0.513c0.334,0,0.697-0.087,1.091-0.262l0.676,1.811c-0.218,0.146-0.521,0.272-0.905,0.382
		c-0.386,0.109-0.738,0.164-1.058,0.164c-1.179,0-2.102-0.306-2.771-0.916c-0.669-0.611-1.004-1.491-1.004-2.641v-5.453h-1.461
		v-1.876h1.461v-2.596l2.443-0.479V162.897z"/>
	<path fill="#FFFFFF" d="M173.097,159.647c0,0.407-0.143,0.753-0.426,1.036s-0.629,0.426-1.036,0.426s-0.745-0.143-1.015-0.426
		s-0.403-0.629-0.403-1.036c0-0.393,0.138-0.731,0.414-1.015s0.611-0.426,1.004-0.426c0.407,0,0.753,0.143,1.036,0.426
		S173.097,159.255,173.097,159.647z M172.899,162.811v10.58h-2.465v-10.58H172.899z"/>
	<path fill="#FFFFFF" d="M182.498,164.752c-0.96,0-1.979,0.24-3.054,0.72l-0.677-2.007c0.378-0.247,0.963-0.465,1.756-0.654
		s1.437-0.283,1.931-0.283c0.814,0,1.56,0.167,2.236,0.501c0.676,0.335,1.21,0.789,1.604,1.364c0.393,0.574,0.589,1.217,0.589,1.93
		v7.068h-1.637l-0.37-1.069c-0.408,0.393-0.873,0.713-1.396,0.96s-1.047,0.371-1.57,0.371c-1.222,0-2.149-0.306-2.781-0.916
		c-0.633-0.611-0.949-1.426-0.949-2.443c0-1.063,0.36-1.884,1.08-2.465c0.72-0.582,1.668-0.873,2.847-0.873h2.312
		C184.388,165.486,183.748,164.752,182.498,164.752z M182.062,168.591c-0.538,0-0.964,0.164-1.276,0.491s-0.469,0.73-0.469,1.211
		c0,0.378,0.138,0.709,0.414,0.992s0.655,0.426,1.135,0.426c0.45,0,0.901-0.109,1.353-0.328c0.45-0.218,0.857-0.516,1.222-0.895
		v-1.897H182.062z"/>
	<path fill="#FFFFFF" d="M205.947,158.207c1.236,0,2.523,0.35,3.861,1.048l-0.829,1.941c-0.597-0.291-1.102-0.505-1.516-0.644
		c-0.415-0.139-0.913-0.207-1.495-0.207c-0.596,0-1.068,0.178-1.418,0.534c-0.349,0.356-0.523,0.789-0.523,1.298
		c0,0.494,0.146,0.96,0.437,1.396c0.291,0.436,0.785,0.959,1.483,1.57l3.773,3.469c0.422-0.975,0.662-2.102,0.721-3.381l2.159,0.872
		c-0.087,1.585-0.429,2.981-1.025,4.188l1.745,1.549l-1.418,1.788l-1.701-1.549c-1.135,1.048-2.64,1.571-4.516,1.571
		c-1.076-0.016-2.047-0.211-2.912-0.59c-0.865-0.377-1.549-0.938-2.051-1.68c-0.502-0.741-0.752-1.643-0.752-2.705
		c0-0.813,0.199-1.603,0.6-2.366c0.399-0.764,0.927-1.407,1.581-1.931c-0.422-0.611-0.632-1.309-0.632-2.094
		c0-0.742,0.182-1.422,0.545-2.04s0.88-1.112,1.549-1.483S205.061,158.207,205.947,158.207z M205.686,171.471
		c1.105,0,2.028-0.328,2.771-0.982l-4.079-3.729c-0.262-0.232-0.495-0.466-0.698-0.698c-0.349,0.32-0.626,0.701-0.829,1.146
		c-0.204,0.443-0.313,0.92-0.327,1.429c0,0.931,0.306,1.636,0.916,2.115C204.05,171.23,204.799,171.471,205.686,171.471z"/>
	<path fill="#FFFFFF" d="M231.056,173.674c-1.105,0-2.065-0.232-2.88-0.698s-1.443-1.116-1.888-1.952
		c-0.443-0.836-0.664-1.814-0.664-2.934c0-1.105,0.221-2.076,0.664-2.912c0.444-0.836,1.08-1.487,1.91-1.953
		c0.828-0.465,1.795-0.697,2.9-0.697s2.068,0.229,2.891,0.687c0.821,0.458,1.454,1.109,1.898,1.952
		c0.443,0.844,0.664,1.818,0.664,2.924s-0.225,2.079-0.676,2.922c-0.451,0.844-1.091,1.498-1.92,1.964
		C233.128,173.441,232.16,173.674,231.056,173.674z M234.022,168.111c0-1.033-0.266-1.873-0.797-2.52s-1.24-0.971-2.127-0.971
		c-0.873,0-1.582,0.327-2.127,0.981s-0.825,1.483-0.84,2.487c0,1.032,0.266,1.868,0.797,2.508c0.53,0.641,1.239,0.96,2.127,0.96
		c0.887,0,1.604-0.327,2.148-0.981S234.022,169.1,234.022,168.111z"/>
	<path fill="#FFFFFF" d="M250.884,173.391h-1.33l-0.523-0.873c-0.451,0.363-0.936,0.647-1.451,0.851
		c-0.516,0.204-1.014,0.306-1.494,0.306c-1.076,0-2.011-0.232-2.803-0.698c-0.793-0.466-1.404-1.12-1.832-1.964
		c-0.43-0.843-0.645-1.824-0.645-2.944c0-1.104,0.215-2.075,0.645-2.912c0.428-0.836,1.047-1.483,1.854-1.941
		s1.748-0.687,2.825-0.687c0.334,0,0.705,0.062,1.112,0.186c0.407,0.123,0.8,0.301,1.178,0.533v-5.017l2.465-0.218V173.391z
		 M246.129,171.558c0.437,0,0.836-0.069,1.2-0.207c0.363-0.138,0.727-0.36,1.09-0.665v-5.191c-0.349-0.307-0.705-0.527-1.068-0.666
		s-0.771-0.207-1.222-0.207c-0.872,0-1.56,0.32-2.062,0.959c-0.502,0.641-0.752,1.463-0.752,2.466c0,1.062,0.25,1.912,0.752,2.552
		C244.569,171.238,245.257,171.558,246.129,171.558z"/>
	<path fill="#FFFFFF" d="M261.464,173.674c-1.105,0-2.064-0.232-2.879-0.698s-1.443-1.116-1.888-1.952
		c-0.443-0.836-0.665-1.814-0.665-2.934c0-1.105,0.222-2.076,0.665-2.912c0.444-0.836,1.08-1.487,1.909-1.953
		c0.828-0.465,1.796-0.697,2.9-0.697c1.105,0,2.069,0.229,2.891,0.687c0.822,0.458,1.455,1.109,1.898,1.952
		c0.443,0.844,0.665,1.818,0.665,2.924s-0.226,2.079-0.677,2.922c-0.45,0.844-1.09,1.498-1.919,1.964
		S262.569,173.674,261.464,173.674z M264.431,168.111c0-1.033-0.266-1.873-0.797-2.52c-0.53-0.646-1.239-0.971-2.127-0.971
		c-0.872,0-1.581,0.327-2.126,0.981c-0.546,0.654-0.825,1.483-0.84,2.487c0,1.032,0.265,1.868,0.796,2.508
		c0.531,0.641,1.24,0.96,2.127,0.96s1.604-0.327,2.148-0.981S264.431,169.1,264.431,168.111z"/>
	<path fill="#FFFFFF" d="M277.41,164.533c-0.888,0-1.92,0.488-3.098,1.462v7.396h-2.443v-10.58h1.636l0.437,1.266
		c0.61-0.494,1.28-0.888,2.007-1.179c0.727-0.29,1.41-0.437,2.051-0.437c1.236,0,2.131,0.367,2.684,1.102
		c0.552,0.734,0.828,1.742,0.828,3.021v6.807h-2.465v-6.654C279.046,165.268,278.501,164.533,277.41,164.533z"/>
	<path fill="#FFFFFF" d="M289.909,162.897h1.92l0.742,1.876h-2.662v5.039c0,0.567,0.127,1.021,0.382,1.363s0.636,0.513,1.146,0.513
		c0.334,0,0.697-0.087,1.091-0.262l0.677,1.811c-0.219,0.146-0.521,0.272-0.906,0.382s-0.738,0.164-1.058,0.164
		c-1.179,0-2.102-0.306-2.771-0.916c-0.669-0.611-1.004-1.491-1.004-2.641v-5.453h-1.461v-1.876h1.461v-2.596l2.443-0.479V162.897z"
		/>
	<path fill="#FFFFFF" d="M302.67,173.674c-1.105,0-2.065-0.232-2.88-0.698s-1.443-1.116-1.887-1.952s-0.665-1.814-0.665-2.934
		c0-1.105,0.222-2.076,0.665-2.912s1.08-1.487,1.909-1.953c0.829-0.465,1.796-0.697,2.901-0.697c1.104,0,2.068,0.229,2.891,0.687
		c0.82,0.458,1.453,1.109,1.897,1.952c0.443,0.844,0.665,1.818,0.665,2.924s-0.226,2.079-0.676,2.922
		c-0.451,0.844-1.092,1.498-1.92,1.964C304.742,173.441,303.774,173.674,302.67,173.674z M305.637,168.111
		c0-1.033-0.266-1.873-0.796-2.52c-0.531-0.646-1.24-0.971-2.127-0.971c-0.873,0-1.582,0.327-2.127,0.981s-0.826,1.483-0.84,2.487
		c0,1.032,0.266,1.868,0.796,2.508c0.53,0.641,1.239,0.96,2.127,0.96c0.887,0,1.604-0.327,2.148-0.981
		C305.364,169.922,305.637,169.1,305.637,168.111z"/>
	<path fill="#FFFFFF" d="M315.737,157.989v15.401h-2.443v-15.161L315.737,157.989z"/>
	<path fill="#FFFFFF" d="M326.294,173.674c-1.105,0-2.064-0.232-2.879-0.698s-1.443-1.116-1.887-1.952s-0.666-1.814-0.666-2.934
		c0-1.105,0.223-2.076,0.666-2.912s1.08-1.487,1.908-1.953c0.829-0.465,1.797-0.697,2.901-0.697s2.069,0.229,2.891,0.687
		s1.454,1.109,1.897,1.952c0.443,0.844,0.666,1.818,0.666,2.924s-0.227,2.079-0.677,2.922c-0.45,0.844-1.091,1.498-1.919,1.964
		C328.366,173.441,327.399,173.674,326.294,173.674z M329.261,168.111c0-1.033-0.266-1.873-0.796-2.52s-1.239-0.971-2.127-0.971
		c-0.872,0-1.581,0.327-2.126,0.981c-0.546,0.654-0.826,1.483-0.84,2.487c0,1.032,0.265,1.868,0.795,2.508
		c0.531,0.641,1.24,0.96,2.127,0.96s1.604-0.327,2.148-0.981C328.988,169.922,329.261,169.1,329.261,168.111z"/>
	<path fill="#FFFFFF" d="M346.124,174.109c0,1.324-0.477,2.371-1.43,3.142c-0.952,0.771-2.258,1.156-3.916,1.156
		c-0.523,0-1.203-0.102-2.039-0.306c-0.836-0.203-1.494-0.473-1.975-0.807l0.742-1.768c0.654,0.307,1.218,0.531,1.69,0.677
		s0.978,0.218,1.517,0.218c0.872,0,1.581-0.207,2.127-0.621c0.545-0.414,0.818-0.985,0.818-1.713v-1.135
		c-0.379,0.233-0.771,0.412-1.179,0.535s-0.793,0.186-1.156,0.186c-1.076,0-2.011-0.232-2.803-0.698
		c-0.793-0.466-1.403-1.12-1.833-1.964c-0.429-0.843-0.643-1.824-0.643-2.944c0-1.104,0.214-2.075,0.643-2.912
		c0.43-0.836,1.047-1.483,1.854-1.941s1.749-0.687,2.825-0.687c0.436,0,0.924,0.102,1.461,0.305c0.538,0.204,1.018,0.48,1.439,0.829
		l0.524-0.851h1.331V174.109z M343.659,170.686v-5.191c-0.35-0.307-0.706-0.527-1.07-0.666c-0.363-0.139-0.771-0.207-1.221-0.207
		c-0.873,0-1.561,0.32-2.062,0.959c-0.502,0.641-0.753,1.463-0.753,2.466c0,1.062,0.251,1.912,0.753,2.552
		c0.501,0.641,1.188,0.96,2.062,0.96c0.436,0,0.836-0.069,1.199-0.207S343.295,170.99,343.659,170.686z"/>
	<path fill="#FFFFFF" d="M354.5,159.647c0,0.407-0.142,0.753-0.426,1.036c-0.283,0.283-0.629,0.426-1.036,0.426
		s-0.745-0.143-1.014-0.426c-0.27-0.283-0.404-0.629-0.404-1.036c0-0.393,0.139-0.731,0.414-1.015
		c0.277-0.283,0.611-0.426,1.004-0.426c0.407,0,0.753,0.143,1.036,0.426C354.358,158.916,354.5,159.255,354.5,159.647z
		 M354.304,162.811v10.58h-2.465v-10.58H354.304z"/>
	<path fill="#FFFFFF" d="M363.901,164.752c-0.96,0-1.979,0.24-3.054,0.72l-0.677-2.007c0.379-0.247,0.963-0.465,1.756-0.654
		s1.437-0.283,1.932-0.283c0.813,0,1.559,0.167,2.235,0.501c0.677,0.335,1.21,0.789,1.604,1.364c0.393,0.574,0.589,1.217,0.589,1.93
		v7.068h-1.637l-0.37-1.069c-0.407,0.393-0.872,0.713-1.396,0.96c-0.523,0.247-1.047,0.371-1.57,0.371
		c-1.222,0-2.149-0.306-2.781-0.916c-0.633-0.611-0.949-1.426-0.949-2.443c0-1.063,0.36-1.884,1.08-2.465
		c0.72-0.582,1.669-0.873,2.847-0.873h2.313C365.792,165.486,365.151,164.752,363.901,164.752z M363.466,168.591
		c-0.539,0-0.965,0.164-1.277,0.491s-0.469,0.73-0.469,1.211c0,0.378,0.139,0.709,0.414,0.992c0.277,0.283,0.655,0.426,1.135,0.426
		c0.451,0,0.902-0.109,1.353-0.328c0.45-0.218,0.858-0.516,1.222-0.895v-1.897H363.466z"/>
</g>
</svg>
